# File created by Blade
# Date/Time:  Fri Jan 16 19:00:24 2015
# Frame Rate: 120.000 fps
#------------------------------------------------------
:FULLY-SPECIFIED
:DEGREES
1300
root 17.643154 35.634105 -20.833363 -184.056746 -3.534341 -181.851578
Spine 4.972763 -0.687351 -8.260038
Head 1.547014 -4.423476 10.453459
LeftShoulder -7.409554 -25.501586 12.392717
LeftArm 1.201794 -4.047699 -14.204601
LeftForeArm 0.236501 0.000000 9.051954
LeftHand -8.572892 -0.000000 6.758457
LeftHandThumb1 -26.253704 0.000000 33.147579
RightShoulder -13.075759 -9.700731 1.593542
RightArm -3.727193 53.530398 29.699850
RightForeArm -26.562419 -0.000000 30.988441
RightHand -14.925166 -0.000000 -5.347089
RightHandThumb1 -24.326973 -0.000000 -32.862282
LeftUpLeg 6.800325 12.028931 -9.495102
LeftLeg -3.790452 -0.000000 0.000000
LeftFoot -19.648232 17.830067 -16.219622
LeftToeBase 37.295109 -0.000000 -0.000000
RightUpLeg -46.380087 0.380627 1.286083
RightLeg 81.752204 -0.000000 -0.000000
RightFoot 9.576132 -37.049600 -0.572525
RightToeBase 19.099402 -0.000000 -0.000000
1301
root 17.647120 35.650202 -20.832805 -184.227677 -3.758952 -181.591341
Spine 5.218907 -0.832883 -8.067475
Head 1.434918 -4.497494 10.570278
LeftShoulder -7.380310 -25.541357 12.342096
LeftArm 1.164271 -4.112312 -14.317857
LeftForeArm 0.342669 -0.000000 8.936734
LeftHand -8.567294 -0.000000 6.715277
LeftHandThumb1 -26.253704 0.000000 33.147579
RightShoulder -13.011014 -9.582152 1.483443
RightArm -4.088793 53.542516 29.217234
RightForeArm -26.550541 0.000000 30.806391
RightHand -14.846989 -0.000000 -5.318050
RightHandThumb1 -24.326973 -0.000000 -32.862282
LeftUpLeg 6.995197 11.989755 -9.208092
LeftLeg -3.856923 -0.000000 0.000000
LeftFoot -19.480129 17.775729 -16.018023
LeftToeBase 37.378056 -0.000000 -0.000000
RightUpLeg -47.468859 0.203401 1.717785
RightLeg 82.975722 -0.000000 -0.000000
RightFoot 11.245978 -36.671406 -1.224689
RightToeBase 19.593127 -0.000000 -0.000000
1302
root 17.652043 35.666035 -20.829016 -184.359397 -3.996132 -181.332913
Spine 5.418821 -0.942049 -7.871309
Head 1.335397 -4.653432 10.671714
LeftShoulder -7.286582 -25.612031 12.255099
LeftArm 1.116171 -4.066847 -14.388149
LeftForeArm 0.426453 -0.000000 8.806273
LeftHand -8.535027 -0.000000 6.533899
LeftHandThumb1 -26.253704 0.000000 33.147579
RightShoulder -13.028550 -9.551188 1.422046
RightArm -4.309694 53.634962 28.836460
RightForeArm -26.539214 -0.000000 30.665335
RightHand -14.874901 -0.000000 -5.333079
RightHandThumb1 -24.326973 -0.000000 -32.862282
LeftUpLeg 7.122060 11.895819 -8.939163
LeftLeg -3.887015 -0.000000 0.000000
LeftFoot -19.362401 17.753233 -15.863037
LeftToeBase 37.149508 -0.000000 -0.000000
RightUpLeg -48.585021 0.038724 2.156823
RightLeg 84.125971 -0.000000 -0.000000
RightFoot 12.756432 -36.332912 -1.846835
RightToeBase 20.531229 -0.000000 -0.000000
1303
root 17.659899 35.683030 -20.827129 -184.497717 -4.193693 -181.074459
Spine 5.622274 -1.031005 -7.692444
Head 1.233743 -4.798067 10.841831
LeftShoulder -7.264276 -25.640410 12.210827
LeftArm 1.122992 -4.017200 -14.498658
LeftForeArm 0.469786 -0.000000 8.726011
LeftHand -8.551809 -0.000000 6.418668
LeftHandThumb1 -26.253704 0.000000 33.147579
RightShoulder -13.040040 -9.513919 1.404199
RightArm -4.487389 53.670548 28.409233
RightForeArm -26.451987 0.000000 30.392544
RightHand -14.758474 -0.000000 -5.350496
RightHandThumb1 -24.326973 -0.000000 -32.862282
LeftUpLeg 7.242109 11.814033 -8.661374
LeftLeg -3.888558 -0.000000 0.000000
LeftFoot -19.259820 17.753666 -15.717850
LeftToeBase 37.053399 -0.000000 -0.000000
RightUpLeg -49.683723 -0.064256 2.584952
RightLeg 85.241639 -0.000000 -0.000000
RightFoot 14.078598 -36.030788 -2.360731
RightToeBase 21.233606 -0.000000 -0.000000
1304
root 17.666211 35.698831 -20.825788 -184.624220 -4.370251 -180.840701
Spine 5.791945 -1.127398 -7.532119
Head 1.190943 -4.934313 10.939307
LeftShoulder -7.207145 -25.770811 12.149448
LeftArm 1.023244 -3.810687 -14.552032
LeftForeArm 0.595711 -0.000000 8.646973
LeftHand -8.549695 -0.000000 6.287843
LeftHandThumb1 -26.253704 0.000000 33.147579
RightShoulder -12.954586 -9.388474 1.327929
RightArm -4.902436 53.526224 27.862129
RightForeArm -26.271175 -0.000000 30.245255
RightHand -14.731016 -0.000000 -5.384148
RightHandThumb1 -24.326973 -0.000000 -32.862282
LeftUpLeg 7.347320 11.710663 -8.419521
LeftLeg -3.886210 -0.000000 0.000000
LeftFoot -19.202912 17.832686 -15.596014
LeftToeBase 37.068497 -0.000000 -0.000000
RightUpLeg -50.791669 -0.165629 2.989853
RightLeg 86.326106 -0.000000 -0.000000
RightFoot 15.285949 -35.796510 -2.910987
RightToeBase 21.799201 -0.000000 -0.000000
1305
root 17.675379 35.715207 -20.826253 -184.750379 -4.510958 -180.588633
Spine 5.947517 -1.157044 -7.335146
Head 1.154945 -5.055026 11.010556
LeftShoulder -7.174837 -25.744947 12.028368
LeftArm 1.092560 -3.722724 -14.599985
LeftForeArm 0.557274 -0.000000 8.528598
LeftHand -8.584149 -0.000000 6.218280
LeftHandThumb1 -26.253704 0.000000 33.147579
RightShoulder -12.981945 -9.403900 1.273335
RightArm -5.004531 53.586941 27.590155
RightForeArm -26.273091 -0.000000 30.089849
RightHand -14.686523 -0.000000 -5.374538
RightHandThumb1 -24.326973 -0.000000 -32.862282
LeftUpLeg 7.443413 11.633058 -8.151507
LeftLeg -3.871916 -0.000000 0.000000
LeftFoot -19.123949 17.897405 -15.478784
LeftToeBase 36.822155 -0.000000 -0.000000
RightUpLeg -51.882844 -0.219348 3.427477
RightLeg 87.337979 -0.000000 -0.000000
RightFoot 16.388219 -35.712293 -3.482734
RightToeBase 22.245384 -0.000000 -0.000000
1306
root 17.682289 35.730210 -20.831263 -184.870541 -4.663740 -180.349979
Spine 6.076768 -1.245566 -7.160765
Head 1.152845 -5.149794 11.100866
LeftShoulder -7.163303 -25.832154 12.032001
LeftArm 0.971559 -3.566040 -14.736447
LeftForeArm 0.575817 -0.000000 8.544149
LeftHand -8.690797 0.000000 6.105297
LeftHandThumb1 -26.253704 0.000000 33.147579
RightShoulder -12.928341 -9.301321 1.162501
RightArm -5.267064 53.540594 27.218553
RightForeArm -26.284543 -0.000000 29.951319
RightHand -14.717411 -0.000000 -5.413703
RightHandThumb1 -24.326973 -0.000000 -32.862282
LeftUpLeg 7.538312 11.510337 -7.909975
LeftLeg -3.859171 -0.000000 0.000000
LeftFoot -19.026682 18.006844 -15.342077
LeftToeBase 36.526885 -0.000000 -0.000000
RightUpLeg -52.967854 -0.256960 3.820128
RightLeg 88.371599 -0.000000 -0.000000
RightFoot 17.049541 -35.552914 -3.680469
RightToeBase 22.559337 -0.000000 -0.000000
1307
root 17.692624 35.746521 -20.837819 -184.998806 -4.792497 -180.092560
Spine 6.197515 -1.286028 -6.953064
Head 1.184896 -5.303665 11.146403
LeftShoulder -7.131092 -25.830336 11.914303
LeftArm 0.981380 -3.376870 -14.779450
LeftForeArm 0.404040 -0.000000 8.458359
LeftHand -8.692464 -0.000000 6.141233
LeftHandThumb1 -26.253704 0.000000 33.147579
RightShoulder -12.895340 -9.207906 1.070581
RightArm -5.559871 53.395094 26.835896
RightForeArm -26.184945 -0.000000 29.904309
RightHand -14.813596 -0.000000 -5.575891
RightHandThumb1 -24.326973 -0.000000 -32.862282
LeftUpLeg 7.631160 11.382072 -7.645542
LeftLeg -3.824497 -0.000000 0.000000
LeftFoot -18.905153 18.149519 -15.143303
LeftToeBase 36.067982 -0.000000 -0.000000
RightUpLeg -54.016505 -0.280355 4.256971
RightLeg 89.313700 -0.000000 -0.000000
RightFoot 17.716832 -35.540500 -4.096230
RightToeBase 23.096888 -0.000000 -0.000000
1308
root 17.698357 35.758730 -20.838627 -185.053690 -4.887463 -179.909489
Spine 6.230856 -1.306901 -6.822033
Head 1.237943 -5.431190 11.173678
LeftShoulder -7.071628 -25.963153 11.878898
LeftArm 0.819278 -3.266636 -14.862780
LeftForeArm 0.599021 -0.000000 8.468720
LeftHand -8.676064 -0.000000 5.975763
LeftHandThumb1 -26.253704 0.000000 33.147579
RightShoulder -12.930438 -9.261891 1.005705
RightArm -5.540229 53.500742 26.661674
RightForeArm -26.091239 -0.000000 29.724443
RightHand -14.717572 0.000000 -5.436099
RightHandThumb1 -24.326973 -0.000000 -32.862282
LeftUpLeg 7.634237 11.273361 -7.477963
LeftLeg -3.765523 -0.000000 0.000000
LeftFoot -18.739279 18.273926 -14.920188
LeftToeBase 35.475340 -0.000000 -0.000000
RightUpLeg -55.163972 -0.265177 4.608484
RightLeg 90.265203 -0.000000 -0.000000
RightFoot 18.185355 -35.499138 -4.469565
RightToeBase 23.235085 -0.000000 -0.000000
1309
root 17.708671 35.772506 -20.845549 -185.138796 -4.967549 -179.695241
Spine 6.291777 -1.328487 -6.663242
Head 1.282287 -5.512106 11.209714
LeftShoulder -7.106775 -25.995949 11.851583
LeftArm 0.795194 -3.172256 -14.971414
LeftForeArm 0.625315 -0.000000 8.467201
LeftHand -8.756768 -0.000000 5.932719
LeftHandThumb1 -26.253704 0.000000 33.147579
RightShoulder -12.878829 -9.109650 0.922525
RightArm -5.845028 53.351984 26.233548
RightForeArm -25.915721 0.000000 29.623469
RightHand -14.687257 0.000000 -5.407563
RightHandThumb1 -24.326973 -0.000000 -32.862282
LeftUpLeg 7.671794 11.242487 -7.253198
LeftLeg -3.702677 -0.000000 0.000000
LeftFoot -18.645804 18.340276 -14.713694
LeftToeBase 35.223721 -0.000000 -0.000000
RightUpLeg -56.245617 -0.214082 4.995947
RightLeg 91.168416 -0.000000 -0.000000
RightFoot 18.522746 -35.539601 -4.697359
RightToeBase 23.234990 -0.000000 -0.000000
